<svg width="119" height="35" viewBox="0 0 119 35" fill="none" xmlns="http://www.w3.org/2000/svg">
<path d="M18.3647 13.6502L17.1428 13.0918C18.1348 10.9225 18.9353 8.65559 19.521 6.35247C19.9015 4.85816 20.1976 3.32397 20.4012 1.7924L20.4185 1.70737C20.4952 1.41974 20.7056 0.877029 21.2478 0.471305C22.0189 -0.105527 22.8723 0.024641 23.1347 0.0834263L25.8131 0.619318L25.5497 1.93674L22.8413 1.39455C22.7957 1.38405 22.3857 1.29797 22.0525 1.54729C21.8551 1.6953 21.7659 1.8937 21.7265 2.01862C21.5166 3.58588 21.2127 5.15524 20.8232 6.68418C20.2175 9.06447 19.3903 11.4085 18.3647 13.6502Z" fill="#FFF200"/>
<path d="M27.3636 21.2099H4.51025V10.3431C5.49963 9.74628 6.76982 9.22981 8.21111 9.32691C9.95262 9.44395 10.3678 10.3509 12.0957 10.3431C13.9096 10.3347 14.0608 9.33373 15.87 9.32691C17.7028 9.32008 17.8855 10.3462 19.7194 10.3431C21.4131 10.3399 21.8078 9.46442 23.5289 9.32691C24.9145 9.21616 26.2099 9.6602 27.3636 10.3431V21.2099Z" fill="#FAB70A"/>
<path d="M31.3049 18.7662C30.8325 25.2515 25.4064 34.3527 15.7184 34.3527C7.1105 34.3527 0.131836 27.3745 0.131836 18.7662C0.131836 15.3146 0.696595 10.0958 3.51042 9.07445C6.84019 7.8662 9.22887 13.8875 15.1977 14.1641C21.4631 14.4544 24.5246 8.08455 28.0969 9.59565C30.9296 10.7934 31.5169 15.8605 31.3049 18.7662Z" fill="#FFF200"/>
<mask id="mask0_253_1148" style="mask-type:luminance" maskUnits="userSpaceOnUse" x="9" y="29" width="16" height="5">
<path d="M9.00256 29.8293H24.186V33.5916H9.00256V29.8293Z" fill="white"/>
</mask>
<g mask="url(#mask0_253_1148)">
<mask id="mask1_253_1148" style="mask-type:luminance" maskUnits="userSpaceOnUse" x="0" y="8" width="32" height="27">
<path d="M3.51042 9.07442C0.696595 10.0958 0.131836 15.3146 0.131836 18.7661C0.131836 27.3745 7.1105 34.3526 15.7184 34.3526C25.4064 34.3526 30.8325 25.2514 31.3049 18.7661C31.5169 15.8604 30.9296 10.7934 28.0969 9.59561C26.1606 8.77682 24.3745 10.2727 22.1475 11.7686C20.2648 13.033 18.0677 14.2969 15.1977 14.1641C9.77211 13.9127 7.3047 8.91433 4.39955 8.91486C4.10877 8.91486 3.81379 8.96472 3.51042 9.07442Z" fill="white"/>
</mask>
<g mask="url(#mask1_253_1148)">
<path d="M9.65661 33.5895L9.01575 33.1003C10.1458 31.6186 11.565 30.5935 13.1192 30.1363C15.1105 29.5506 16.8468 30.0209 19.2502 30.6717C20.9403 31.1289 22.5946 31.7724 24.1672 32.5838L23.7971 33.3003C22.2755 32.5145 20.6747 31.892 19.0397 31.4496C16.6788 30.8108 15.1195 30.3888 13.3464 30.91C11.9582 31.3184 10.6822 32.2447 9.65661 33.5895Z" fill="white"/>
</g>
</g>
<mask id="mask2_253_1148" style="mask-type:luminance" maskUnits="userSpaceOnUse" x="0" y="8" width="32" height="14">
<path d="M0 8.86816H31.4418V21.9017H0V8.86816Z" fill="white"/>
</mask>
<g mask="url(#mask2_253_1148)">
<mask id="mask3_253_1148" style="mask-type:luminance" maskUnits="userSpaceOnUse" x="0" y="8" width="32" height="27">
<path d="M3.51042 9.07442C0.696595 10.0958 0.131836 15.3146 0.131836 18.7661C0.131836 27.3745 7.1105 34.3526 15.7184 34.3526C25.4064 34.3526 30.8325 25.2514 31.3049 18.7661C31.5169 15.8604 30.9296 10.7934 28.0969 9.59561C26.1606 8.77682 24.3745 10.2727 22.1475 11.7686C20.2648 13.033 18.0677 14.2969 15.1977 14.1641C9.77211 13.9127 7.3047 8.91433 4.39955 8.91486C4.10877 8.91486 3.81379 8.96472 3.51042 9.07442Z" fill="white"/>
</mask>
<g mask="url(#mask3_253_1148)">
<path d="M6.65499 21.8424C6.37313 21.8424 6.08551 21.824 5.79105 21.7862C2.12327 21.3112 -0.0302727 17.9473 -0.602905 16.9275L0.0998949 16.5328C0.626339 17.4697 2.59932 20.5601 5.89445 20.9863C8.36606 21.306 10.3091 20.05 12.5913 18.3741C16.3352 15.6248 19.4854 11.0091 19.6177 10.8138C19.6518 10.7635 19.6922 10.7146 19.7384 10.658C19.8171 10.563 19.9148 10.4443 20.0029 10.29C20.341 9.6985 20.3336 9.16366 20.3252 8.59732C20.32 8.2698 20.3152 7.93074 20.3772 7.5775C20.6895 5.79294 22.5197 4.78205 22.5974 4.74006C23.8492 4.0614 25.0448 4.34483 27.8665 5.10852C29.9377 5.66908 32.0204 6.25745 34.0563 6.85738L33.828 7.63051C31.7978 7.03269 29.7214 6.44588 27.6561 5.88637C24.8932 5.13896 23.9211 4.93951 22.9821 5.44863C22.9664 5.45703 21.4175 6.31152 21.1713 7.71712C21.1225 7.9953 21.1267 8.28187 21.1309 8.58525C21.1403 9.20512 21.1508 9.90687 20.7026 10.6905C20.5803 10.9046 20.448 11.0647 20.3609 11.1708C20.3299 11.208 20.3032 11.2395 20.2848 11.2663C20.1494 11.4663 16.923 16.1932 13.0684 19.0238C10.9726 20.5628 9.019 21.8424 6.65499 21.8424Z" fill="white"/>
</g>
</g>
<mask id="mask4_253_1148" style="mask-type:luminance" maskUnits="userSpaceOnUse" x="22" y="0" width="2" height="3">
<path d="M22.3049 0H23.2455V2.68733H22.3049V0Z" fill="white"/>
</mask>
<g mask="url(#mask4_253_1148)">
<mask id="mask5_253_1148" style="mask-type:luminance" maskUnits="userSpaceOnUse" x="17" y="0" width="9" height="14">
<path d="M21.2478 0.47131C20.7056 0.877034 20.4952 1.41975 20.4185 1.70738L20.4017 1.79241C20.1976 3.32292 19.9015 4.85712 19.521 6.35247C18.9353 8.6556 18.1348 10.923 17.1428 13.0918L18.3647 13.6508C19.3903 11.4085 20.2175 9.06499 20.8232 6.68419C21.2127 5.15419 21.5166 3.58483 21.727 2.01862C21.7659 1.89371 21.8551 1.69531 22.0525 1.54729C22.3857 1.29798 22.7957 1.38406 22.8413 1.39508L25.5497 1.93675L25.8131 0.619323L23.1353 0.0834316C23.035 0.0608622 22.8487 0.0283203 22.6141 0.0283203C22.2335 0.0283203 21.7249 0.114399 21.2478 0.47131Z" fill="white"/>
</mask>
<g mask="url(#mask5_253_1148)">
<path d="M22.5143 2.64214L22.3826 2.61695L23.0408 -0.813599L23.173 -0.788405L22.5143 2.64214Z" fill="#FAB70A"/>
</g>
</g>
<mask id="mask6_253_1148" style="mask-type:luminance" maskUnits="userSpaceOnUse" x="21" y="0" width="2" height="2">
<path d="M21.4987 0H22.4392V1.6124H21.4987V0Z" fill="white"/>
</mask>
<g mask="url(#mask6_253_1148)">
<mask id="mask7_253_1148" style="mask-type:luminance" maskUnits="userSpaceOnUse" x="17" y="0" width="9" height="14">
<path d="M21.2478 0.47131C20.7056 0.877034 20.4952 1.41975 20.4185 1.70738L20.4017 1.79241C20.1976 3.32292 19.9015 4.85712 19.521 6.35247C18.9353 8.6556 18.1348 10.923 17.1428 13.0918L18.3647 13.6508C19.3903 11.4085 20.2175 9.06499 20.8232 6.68419C21.2127 5.15419 21.5166 3.58483 21.727 2.01862C21.7659 1.89371 21.8551 1.69531 22.0525 1.54729C22.3857 1.29798 22.7957 1.38406 22.8413 1.39508L25.5497 1.93675L25.8131 0.619323L23.1353 0.0834316C23.035 0.0608622 22.8487 0.0283203 22.6141 0.0283203C22.2335 0.0283203 21.7249 0.114399 21.2478 0.47131Z" fill="white"/>
</mask>
<g mask="url(#mask7_253_1148)">
<path d="M22.2724 1.58767L21.5764 -0.102408L21.7003 -0.15332L22.3963 1.53623L22.2724 1.58767Z" fill="#FAB70A"/>
</g>
</g>
<mask id="mask8_253_1148" style="mask-type:luminance" maskUnits="userSpaceOnUse" x="20" y="0" width="3" height="2">
<path d="M20.5581 0.537476H22.0361V1.88114H20.5581V0.537476Z" fill="white"/>
</mask>
<g mask="url(#mask8_253_1148)">
<mask id="mask9_253_1148" style="mask-type:luminance" maskUnits="userSpaceOnUse" x="17" y="0" width="9" height="14">
<path d="M21.2478 0.471371C20.7056 0.877095 20.4952 1.41981 20.4185 1.70744L20.4017 1.79247C20.1976 3.32299 19.9015 4.85718 19.521 6.35253C18.9353 8.65566 18.1348 10.9231 17.1428 13.0919L18.3647 13.6508C19.3903 11.4086 20.2175 9.06506 20.8232 6.68425C21.2127 5.15425 21.5166 3.5849 21.727 2.01869C21.7659 1.89377 21.8551 1.69537 22.0525 1.54735C22.3857 1.29804 22.7957 1.38412 22.8413 1.39514L25.5497 1.93681L25.8131 0.619384L23.1353 0.0834926C23.035 0.0609232 22.8487 0.0283813 22.6141 0.0283813C22.2335 0.0283813 21.7249 0.11446 21.2478 0.471371Z" fill="white"/>
</mask>
<g mask="url(#mask9_253_1148)">
<path d="M21.9312 1.77722L20.5875 0.702288L20.6715 0.597839L22.0152 1.67277L21.9312 1.77722Z" fill="#FAB70A"/>
</g>
</g>
<mask id="mask10_253_1148" style="mask-type:luminance" maskUnits="userSpaceOnUse" x="19" y="1" width="4" height="2">
<path d="M19.2144 1.47803H22.8423V2.28423H19.2144V1.47803Z" fill="white"/>
</mask>
<g mask="url(#mask10_253_1148)">
<mask id="mask11_253_1148" style="mask-type:luminance" maskUnits="userSpaceOnUse" x="17" y="0" width="9" height="14">
<path d="M21.2477 0.47131C20.7055 0.877034 20.495 1.41975 20.4184 1.70738L20.4016 1.79241C20.1974 3.32292 19.9014 4.85712 19.5209 6.35247C18.9351 8.6556 18.1347 10.923 17.1427 13.0918L18.3646 13.6508C19.3902 11.4085 20.2174 9.06499 20.8231 6.68419C21.2125 5.15419 21.5164 3.58483 21.7269 2.01862C21.7657 1.89371 21.855 1.69531 22.0523 1.54729C22.3856 1.29798 22.7955 1.38406 22.8412 1.39508L25.5495 1.93675L25.813 0.619323L23.1351 0.0834316C23.0349 0.0608622 22.8486 0.0283203 22.6139 0.0283203C22.2334 0.0283203 21.7248 0.114399 21.2477 0.47131Z" fill="white"/>
</mask>
<g mask="url(#mask11_253_1148)">
<path d="M22.7037 2.25114L19.2574 1.67588L19.2795 1.54309L22.7253 2.11887L22.7037 2.25114Z" fill="#FAB70A"/>
</g>
</g>
<path d="M48.6425 15.7319V27.9771C48.6425 29.8239 48.1184 31.3479 47.0719 32.5491C46.0237 33.752 44.6977 34.3526 43.0922 34.3526C42.6214 34.3526 42.0707 34.2495 41.4418 34.0465V28.8157C41.708 28.9321 41.9509 28.9887 42.1738 28.9887C42.8826 28.9887 43.2386 28.4164 43.2386 27.2717V15.7319H48.6425Z" fill="#FAB70A"/>
<path d="M67.2778 15.7319V27.5113C67.2778 29.5877 66.6589 31.2481 65.4211 32.4892C64.1833 33.7321 62.5345 34.3526 60.4764 34.3526C58.4267 34.3526 56.8578 33.7504 55.7713 32.5425C54.6833 31.3363 54.1409 29.601 54.1409 27.3383V15.7319H59.5447V27.325C59.5447 28.4347 59.939 28.9887 60.7293 28.9887C61.4913 28.9887 61.874 28.4347 61.874 27.325V15.7319H67.2778Z" fill="#FAB70A"/>
<path d="M78.7829 15.7319V33.9001H73.379V15.7319H78.7829Z" fill="#FAB70A"/>
<path d="M97.479 25.0223L103.136 25.1688C102.763 28.097 101.748 30.3597 100.094 31.9569C98.439 33.5541 96.2811 34.3527 93.6191 34.3527C90.9122 34.3527 88.6478 33.4459 86.8243 31.6308C85.0008 29.8173 84.0891 27.5646 84.0891 24.8759C84.0891 22.1707 85.0175 19.8947 86.8776 18.0479C88.736 16.2028 91.027 15.2794 93.7522 15.2794C96.4308 15.2794 98.6669 16.1845 100.46 17.9947C101.702 19.2458 102.58 20.9894 103.096 23.2255L97.306 23.6115C96.6571 21.625 95.4292 20.63 93.6191 20.63C92.4644 20.63 91.5128 21.0293 90.7641 21.8279C90.0137 22.6265 89.6394 23.6431 89.6394 24.8759C89.6394 26.0655 90.0071 27.0488 90.7441 27.8241C91.4795 28.6011 92.4112 28.9887 93.5392 28.9887C94.6839 28.9887 95.5956 28.6477 96.2744 27.9639C96.9532 27.2817 97.3542 26.3001 97.479 25.0223Z" fill="#FAB70A"/>
<path d="M118.212 22.7996V26.8459H114.685C114.206 26.8459 113.866 26.9174 113.667 27.0588C113.467 27.2019 113.367 27.4415 113.367 27.7776C113.367 28.1602 113.469 28.4098 113.673 28.5296C113.876 28.6494 114.294 28.7093 114.925 28.7093H118.558V33.9002H114.312C112.316 33.9002 110.788 33.4243 109.734 32.4693C108.677 31.516 108.15 30.1384 108.15 28.3366V21.2157C108.15 19.4771 108.649 18.1278 109.647 17.1695C110.645 16.2112 112.05 15.732 113.86 15.732H118.558V20.9495H115.111C114.179 20.9495 113.713 21.2523 113.713 21.8546C113.713 22.2106 113.823 22.4569 114.046 22.5933C114.267 22.7314 114.662 22.7996 115.231 22.7996H118.212Z" fill="#FAB70A"/>
</svg>
