<svg width="33" height="35" viewBox="0 0 33 35" fill="none" xmlns="http://www.w3.org/2000/svg">
<path d="M19.1438 13.6504L17.9219 13.0919C18.9139 10.9226 19.7143 8.65571 20.3001 6.35259C20.6806 4.85828 20.9766 3.32409 21.1803 1.79252L21.1976 1.70749C21.2742 1.41987 21.4847 0.877151 22.0269 0.471427C22.7979 -0.105404 23.6513 0.024763 23.9138 0.0835484L26.5922 0.61944L26.3287 1.93686L23.6204 1.39467C23.5747 1.38417 23.1648 1.2981 22.8315 1.54741C22.6342 1.69542 22.5449 1.89382 22.5056 2.01874C22.2956 3.586 21.9917 5.15536 21.6023 6.6843C20.9966 9.06459 20.1694 11.4087 19.1438 13.6504Z" fill="#FFF200"/>
<path d="M28.1426 21.21H5.28931V10.3431C6.27869 9.74634 7.54887 9.22987 8.99016 9.32697C10.7317 9.44401 11.1468 10.351 12.8747 10.3431C14.6887 10.3347 14.8398 9.33379 16.6491 9.32697C18.4819 9.32014 18.6646 10.3463 20.4984 10.3431C22.1922 10.34 22.5869 9.46448 24.3079 9.32697C25.6936 9.21622 26.989 9.66026 28.1426 10.3431V21.21Z" fill="#FAB70A"/>
<path d="M32.0839 18.7663C31.6116 25.2516 26.1855 34.3528 16.4974 34.3528C7.88955 34.3528 0.910889 27.3747 0.910889 18.7663C0.910889 15.3147 1.47565 10.096 4.28947 9.07458C7.61924 7.86633 10.0079 13.8876 15.9767 14.1642C22.2421 14.4545 25.3037 8.08467 28.8759 9.59577C31.7087 10.7935 32.296 15.8606 32.0839 18.7663Z" fill="#FFF200"/>
<mask id="mask0_301_2328" style="mask-type:luminance" maskUnits="userSpaceOnUse" x="9" y="29" width="16" height="5">
<path d="M9.78162 29.8293H24.965V33.5916H9.78162V29.8293Z" fill="white"/>
</mask>
<g mask="url(#mask0_301_2328)">
<mask id="mask1_301_2328" style="mask-type:luminance" maskUnits="userSpaceOnUse" x="0" y="8" width="33" height="27">
<path d="M4.28947 9.07436C1.47565 10.0958 0.910889 15.3145 0.910889 18.7661C0.910889 27.3744 7.88955 34.3526 16.4974 34.3526C26.1855 34.3526 31.6116 25.2513 32.0839 18.7661C32.296 15.8604 31.7087 10.7933 28.8759 9.59555C26.9397 8.77675 25.1536 10.2726 22.9265 11.7685C21.0438 13.0329 18.8467 14.2968 15.9767 14.164C10.5512 13.9126 8.08375 8.91427 5.1786 8.91479C4.88782 8.91479 4.59285 8.96466 4.28947 9.07436Z" fill="white"/>
</mask>
<g mask="url(#mask1_301_2328)">
<path d="M10.4357 33.5893L9.7948 33.1002C10.9248 31.6185 12.3441 30.5934 13.8982 30.1362C15.8896 29.5505 17.6259 30.0208 20.0292 30.6716C21.7193 31.1288 23.3737 31.7722 24.9462 32.5837L24.5762 33.3001C23.0546 32.5144 21.4537 31.8919 19.8188 31.4494C17.4579 30.8107 15.8985 30.3887 14.1255 30.9099C12.7372 31.3182 11.4613 32.2446 10.4357 33.5893Z" fill="white"/>
</g>
</g>
<mask id="mask2_301_2328" style="mask-type:luminance" maskUnits="userSpaceOnUse" x="0" y="8" width="33" height="14">
<path d="M0.779053 8.86816H32.2208V21.9017H0.779053V8.86816Z" fill="white"/>
</mask>
<g mask="url(#mask2_301_2328)">
<mask id="mask3_301_2328" style="mask-type:luminance" maskUnits="userSpaceOnUse" x="0" y="8" width="33" height="27">
<path d="M4.28947 9.07436C1.47565 10.0958 0.910889 15.3145 0.910889 18.7661C0.910889 27.3744 7.88955 34.3526 16.4974 34.3526C26.1855 34.3526 31.6116 25.2513 32.0839 18.7661C32.296 15.8604 31.7087 10.7933 28.8759 9.59555C26.9397 8.77675 25.1536 10.2726 22.9265 11.7685C21.0438 13.0329 18.8467 14.2968 15.9767 14.164C10.5512 13.9126 8.08375 8.91427 5.1786 8.91479C4.88782 8.91479 4.59285 8.96466 4.28947 9.07436Z" fill="white"/>
</mask>
<g mask="url(#mask3_301_2328)">
<path d="M7.43404 21.8424C7.15219 21.8424 6.86456 21.824 6.57011 21.7862C2.90232 21.3112 0.74878 17.9473 0.176147 16.9275L0.878948 16.5328C1.40539 17.4697 3.37838 20.5601 6.67351 20.9863C9.14512 21.306 11.0882 20.05 13.3703 18.3741C17.1142 15.6248 20.2645 11.0091 20.3967 10.8138C20.4309 10.7635 20.4713 10.7146 20.5175 10.658C20.5962 10.563 20.6938 10.4443 20.782 10.29C21.12 9.6985 21.1127 9.16366 21.1043 8.59732C21.099 8.2698 21.0943 7.93074 21.1562 7.5775C21.4685 5.79294 23.2987 4.78205 23.3764 4.74006C24.6282 4.0614 25.8239 4.34483 28.6456 5.10852C30.7167 5.66908 32.7994 6.25745 34.8354 6.85738L34.6071 7.63051C32.5769 7.03269 30.5005 6.44588 28.4351 5.88637C25.6722 5.13896 24.7001 4.93951 23.7612 5.44863C23.7454 5.45703 22.1965 6.31152 21.9504 7.71712C21.9015 7.9953 21.9057 8.28187 21.9099 8.58525C21.9194 9.20512 21.9299 9.90687 21.4816 10.6905C21.3594 10.9046 21.2271 11.0647 21.14 11.1708C21.109 11.208 21.0822 11.2395 21.0639 11.2663C20.9284 11.4663 17.7021 16.1932 13.8474 19.0238C11.7516 20.5628 9.79805 21.8424 7.43404 21.8424Z" fill="white"/>
</g>
</g>
<mask id="mask4_301_2328" style="mask-type:luminance" maskUnits="userSpaceOnUse" x="23" y="0" width="2" height="3">
<path d="M23.084 0H24.0246V2.68733H23.084V0Z" fill="white"/>
</mask>
<g mask="url(#mask4_301_2328)">
<mask id="mask5_301_2328" style="mask-type:luminance" maskUnits="userSpaceOnUse" x="17" y="0" width="10" height="14">
<path d="M22.0269 0.47131C21.4847 0.877034 21.2742 1.41975 21.1976 1.70738L21.1808 1.79241C20.9766 3.32292 20.6806 4.85712 20.3001 6.35247C19.7143 8.6556 18.9139 10.923 17.9219 13.0918L19.1438 13.6508C20.1694 11.4085 20.9966 9.06499 21.6023 6.68419C21.9917 5.15419 22.2956 3.58483 22.5061 2.01862C22.5449 1.89371 22.6342 1.69531 22.8315 1.54729C23.1648 1.29798 23.5747 1.38406 23.6204 1.39508L26.3287 1.93675L26.5922 0.619323L23.9143 0.0834316C23.8141 0.0608622 23.6277 0.0283203 23.3931 0.0283203C23.0126 0.0283203 22.504 0.114399 22.0269 0.47131Z" fill="white"/>
</mask>
<g mask="url(#mask5_301_2328)">
<path d="M23.2934 2.64226L23.1616 2.61707L23.8198 -0.813477L23.9521 -0.788283L23.2934 2.64226Z" fill="#FAB70A"/>
</g>
</g>
<mask id="mask6_301_2328" style="mask-type:luminance" maskUnits="userSpaceOnUse" x="22" y="0" width="2" height="2">
<path d="M22.2777 0H23.2183V1.6124H22.2777V0Z" fill="white"/>
</mask>
<g mask="url(#mask6_301_2328)">
<mask id="mask7_301_2328" style="mask-type:luminance" maskUnits="userSpaceOnUse" x="17" y="0" width="10" height="14">
<path d="M22.0269 0.47131C21.4847 0.877034 21.2742 1.41975 21.1976 1.70738L21.1808 1.79241C20.9766 3.32292 20.6806 4.85712 20.3001 6.35247C19.7143 8.6556 18.9139 10.923 17.9219 13.0918L19.1438 13.6508C20.1694 11.4085 20.9966 9.06499 21.6023 6.68419C21.9917 5.15419 22.2956 3.58483 22.5061 2.01862C22.5449 1.89371 22.6342 1.69531 22.8315 1.54729C23.1648 1.29798 23.5747 1.38406 23.6204 1.39508L26.3287 1.93675L26.5922 0.619323L23.9143 0.0834316C23.8141 0.0608622 23.6277 0.0283203 23.3931 0.0283203C23.0126 0.0283203 22.504 0.114399 22.0269 0.47131Z" fill="white"/>
</mask>
<g mask="url(#mask7_301_2328)">
<path d="M23.0514 1.58767L22.3555 -0.102408L22.4793 -0.15332L23.1753 1.53623L23.0514 1.58767Z" fill="#FAB70A"/>
</g>
</g>
<mask id="mask8_301_2328" style="mask-type:luminance" maskUnits="userSpaceOnUse" x="21" y="0" width="2" height="2">
<path d="M21.3372 0.537354H22.8152V1.88102H21.3372V0.537354Z" fill="white"/>
</mask>
<g mask="url(#mask8_301_2328)">
<mask id="mask9_301_2328" style="mask-type:luminance" maskUnits="userSpaceOnUse" x="17" y="0" width="10" height="14">
<path d="M22.0269 0.47131C21.4847 0.877034 21.2742 1.41975 21.1976 1.70738L21.1808 1.79241C20.9766 3.32292 20.6806 4.85712 20.3001 6.35247C19.7143 8.6556 18.9139 10.923 17.9219 13.0918L19.1438 13.6508C20.1694 11.4085 20.9966 9.06499 21.6023 6.68419C21.9917 5.15419 22.2956 3.58483 22.5061 2.01862C22.5449 1.89371 22.6342 1.69531 22.8315 1.54729C23.1648 1.29798 23.5747 1.38406 23.6204 1.39508L26.3287 1.93675L26.5922 0.619323L23.9143 0.0834316C23.8141 0.0608622 23.6277 0.0283203 23.3931 0.0283203C23.0126 0.0283203 22.504 0.114399 22.0269 0.47131Z" fill="white"/>
</mask>
<g mask="url(#mask9_301_2328)">
<path d="M22.7102 1.77728L21.3666 0.702349L21.4506 0.5979L22.7942 1.67283L22.7102 1.77728Z" fill="#FAB70A"/>
</g>
</g>
<mask id="mask10_301_2328" style="mask-type:luminance" maskUnits="userSpaceOnUse" x="19" y="1" width="5" height="2">
<path d="M19.9934 1.47803H23.6213V2.28423H19.9934V1.47803Z" fill="white"/>
</mask>
<g mask="url(#mask10_301_2328)">
<mask id="mask11_301_2328" style="mask-type:luminance" maskUnits="userSpaceOnUse" x="17" y="0" width="10" height="14">
<path d="M22.0268 0.47131C21.4846 0.877034 21.2741 1.41975 21.1975 1.70738L21.1807 1.79241C20.9765 3.32292 20.6805 4.85712 20.2999 6.35247C19.7142 8.6556 18.9138 10.923 17.9218 13.0918L19.1436 13.6508C20.1692 11.4085 20.9964 9.06499 21.6021 6.68419C21.9916 5.15419 22.2955 3.58483 22.506 2.01862C22.5448 1.89371 22.634 1.69531 22.8314 1.54729C23.1647 1.29798 23.5746 1.38406 23.6203 1.39508L26.3286 1.93675L26.5921 0.619323L23.9142 0.0834316C23.8139 0.0608622 23.6276 0.0283203 23.393 0.0283203C23.0125 0.0283203 22.5039 0.114399 22.0268 0.47131Z" fill="white"/>
</mask>
<g mask="url(#mask11_301_2328)">
<path d="M23.4828 2.25126L20.0365 1.676L20.0585 1.54321L23.5043 2.11899L23.4828 2.25126Z" fill="#FAB70A"/>
</g>
</g>
</svg>
