<svg width="26" height="23" viewBox="0 0 26 23" fill="none" xmlns="http://www.w3.org/2000/svg">
<path d="M3.375 15.125C2.50167 15.125 1.7625 14.8225 1.1575 14.2175C0.5525 13.6125 0.25 12.8733 0.25 12C0.25 11.1267 0.5525 10.3875 1.1575 9.7825C1.7625 9.1775 2.50167 8.875 3.375 8.875V6.13469C3.375 5.51323 3.59625 4.98125 4.03875 4.53875C4.48125 4.09625 5.01323 3.875 5.63469 3.875H9.625C9.625 3.00167 9.9275 2.2625 10.5325 1.6575C11.1375 1.0525 11.8767 0.75 12.75 0.75C13.6233 0.75 14.3625 1.0525 14.9675 1.6575C15.5725 2.2625 15.875 3.00167 15.875 3.875H19.8653C20.4868 3.875 21.0187 4.09625 21.4613 4.53875C21.9037 4.98125 22.125 5.51323 22.125 6.13469V8.875C22.9983 8.875 23.7375 9.1775 24.3425 9.7825C24.9475 10.3875 25.25 11.1267 25.25 12C25.25 12.8733 24.9475 13.6125 24.3425 14.2175C23.7375 14.8225 22.9983 15.125 22.125 15.125V20.3653C22.125 20.9868 21.9037 21.5187 21.4613 21.9613C21.0187 22.4037 20.4868 22.625 19.8653 22.625H5.63469C5.01323 22.625 4.48125 22.4037 4.03875 21.9613C3.59625 21.5187 3.375 20.9868 3.375 20.3653V15.125ZM8.99844 12.9375C9.43219 12.9375 9.80125 12.7857 10.1056 12.4822C10.4102 12.1786 10.5625 11.8101 10.5625 11.3766C10.5625 10.9428 10.4107 10.5737 10.1072 10.2694C9.80365 9.96479 9.4351 9.8125 9.00156 9.8125C8.56781 9.8125 8.19875 9.96427 7.89437 10.2678C7.58979 10.5714 7.4375 10.9399 7.4375 11.3734C7.4375 11.8072 7.58927 12.1763 7.89281 12.4806C8.19635 12.7852 8.5649 12.9375 8.99844 12.9375ZM16.4984 12.9375C16.9322 12.9375 17.3013 12.7857 17.6056 12.4822C17.9102 12.1786 18.0625 11.8101 18.0625 11.3766C18.0625 10.9428 17.9107 10.5737 17.6072 10.2694C17.3036 9.96479 16.9351 9.8125 16.5016 9.8125C16.0678 9.8125 15.6988 9.96427 15.3944 10.2678C15.0898 10.5714 14.9375 10.9399 14.9375 11.3734C14.9375 11.8072 15.0893 12.1763 15.3928 12.4806C15.6964 12.7852 16.0649 12.9375 16.4984 12.9375ZM8.0625 17.9375H17.4375V16.0625H8.0625V17.9375ZM5.63469 20.75H19.8653C19.9776 20.75 20.0698 20.714 20.1419 20.6419C20.214 20.5698 20.25 20.4776 20.25 20.3653V6.13469C20.25 6.0224 20.214 5.93021 20.1419 5.85813C20.0698 5.78604 19.9776 5.75 19.8653 5.75H5.63469C5.5224 5.75 5.43021 5.78604 5.35813 5.85813C5.28604 5.93021 5.25 6.0224 5.25 6.13469V20.3653C5.25 20.4776 5.28604 20.5698 5.35813 20.6419C5.43021 20.714 5.5224 20.75 5.63469 20.75Z" fill="#595959"/>
</svg>
