<svg width="25" height="26" viewBox="0 0 25 26" fill="none" xmlns="http://www.w3.org/2000/svg">
<path d="M12.3125 9.9375V6.1875H8.5625V4.3125H12.3125V0.5625H14.1875V4.3125H17.9375V6.1875H14.1875V9.9375H12.3125ZM7.19219 25.9472C6.5849 25.9472 6.06854 25.7344 5.64313 25.3088C5.21771 24.8833 5.005 24.367 5.005 23.7597C5.005 23.1522 5.21771 22.6357 5.64313 22.2103C6.06854 21.7849 6.5849 21.5722 7.19219 21.5722C7.79969 21.5722 8.31615 21.7849 8.74156 22.2103C9.16698 22.6357 9.37969 23.1522 9.37969 23.7597C9.37969 24.367 9.16698 24.8833 8.74156 25.3088C8.31615 25.7344 7.79969 25.9472 7.19219 25.9472ZM19.3078 25.9472C18.7003 25.9472 18.1839 25.7344 17.7584 25.3088C17.333 24.8833 17.1203 24.367 17.1203 23.7597C17.1203 23.1522 17.333 22.6357 17.7584 22.2103C18.1839 21.7849 18.7003 21.5722 19.3078 21.5722C19.9151 21.5722 20.4315 21.7849 20.8569 22.2103C21.2823 22.6357 21.495 23.1522 21.495 23.7597C21.495 24.367 21.2823 24.8833 20.8569 25.3088C20.4315 25.7344 19.9151 25.9472 19.3078 25.9472ZM0.125 3.6875V1.8125H3.70188L8.91813 12.8222H17.44C17.5121 12.8222 17.5761 12.8042 17.6322 12.7681C17.6882 12.7321 17.7364 12.682 17.7766 12.6178L22.3991 4.3125H24.5334L19.4181 13.5528C19.2131 13.9134 18.9418 14.1943 18.6041 14.3953C18.2664 14.5966 17.8968 14.6972 17.4953 14.6972H8.375L6.92781 17.3413C6.86365 17.4375 6.86167 17.5417 6.92188 17.6538C6.98188 17.766 7.07198 17.8222 7.19219 17.8222H21.495V19.6972H7.19219C6.35885 19.6972 5.72948 19.3409 5.30406 18.6284C4.87865 17.9161 4.86708 17.1954 5.26938 16.4663L7.05281 13.2597L2.505 3.6875H0.125Z" fill="#595959"/>
</svg>
